<svg width="1378" height="517" viewBox="0 0 1378 517" fill="currentColor" xmlns="http://www.w3.org/2000/svg">
<path d="M544.299 229.25C540.64 230.58 535.732 231.662 529.577 232.494C523.588 233.492 515.104 233.991 504.124 233.991C498.634 233.991 493.477 232.909 488.652 230.747C483.994 228.75 479.919 226.006 476.425 222.512C472.932 218.852 470.104 214.693 467.941 210.035C465.945 205.211 464.946 200.054 464.946 194.564L464.697 134.425H438.745V101.985H464.697V61.5601H502.128V101.985H533.07L525.834 134.425H502.128V186.828C502.294 190.488 503.625 193.649 506.12 196.311C508.782 198.806 512.026 200.054 515.852 200.054C522.34 200.054 526.998 199.388 529.826 198.057C532.821 196.56 534.983 195.479 536.314 194.813L544.299 229.25ZM637.652 96.9945C641.645 96.9945 645.554 97.3272 649.38 97.9926C653.373 98.4917 657.116 99.4067 660.609 100.738L652.874 134.675C652.541 133.677 650.877 132.845 647.883 132.179C644.889 131.348 641.894 130.932 638.9 130.932C632.911 130.932 627.587 131.597 622.929 132.928C618.271 134.259 614.279 135.922 610.951 137.919C607.791 139.749 605.295 141.828 603.465 144.157C601.802 146.32 600.97 148.399 600.97 150.396V229H563.539V101.985H600.97V121.699C601.635 119.203 603.299 116.542 605.961 113.714C608.789 110.719 611.95 108.057 615.443 105.728C619.103 103.233 622.846 101.153 626.672 99.4898C630.665 97.8263 634.325 96.9945 637.652 96.9945ZM734.935 96.9945C744.916 96.9945 754.149 98.8244 762.633 102.484C771.284 106.144 778.687 111.135 784.842 117.457C791.164 123.612 796.071 130.848 799.565 139.166C803.225 147.484 805.055 156.301 805.055 165.617C805.055 167.447 804.972 169.36 804.805 171.357C804.639 173.353 804.389 175.266 804.057 177.096H702.994C705.156 183.418 708.9 188.908 714.223 193.566C719.713 198.057 726.617 200.303 734.935 200.303C740.924 200.303 746.746 199.139 752.402 196.81C758.225 194.481 762.633 191.403 765.628 187.577L795.822 206.043C792.495 210.368 788.585 214.277 784.094 217.771C779.602 221.098 774.694 224.009 769.371 226.505C764.047 228.834 758.474 230.664 752.652 231.994C746.829 233.325 740.924 233.991 734.935 233.991C724.953 233.991 715.554 232.244 706.737 228.75C698.086 225.091 690.517 220.183 684.029 214.028C677.707 207.706 672.633 200.386 668.807 192.068C665.147 183.75 663.317 174.933 663.317 165.617C663.317 156.135 665.23 147.235 669.057 138.917C672.883 130.433 678.04 123.113 684.528 116.957C691.016 110.802 698.585 105.978 707.236 102.484C715.887 98.8244 725.12 96.9945 734.935 96.9945ZM734.935 130.932C727.449 130.932 721.044 132.928 715.72 136.921C710.563 140.913 706.654 145.738 703.992 151.394H765.877C763.382 145.738 759.473 140.913 754.149 136.921C748.826 132.928 742.421 130.932 734.935 130.932ZM892.602 96.9945C902.583 96.9945 911.816 98.8244 920.3 102.484C928.951 106.144 936.354 111.135 942.509 117.457C948.831 123.612 953.738 130.848 957.232 139.166C960.892 147.484 962.722 156.301 962.722 165.617C962.722 167.447 962.639 169.36 962.472 171.357C962.306 173.353 962.056 175.266 961.724 177.096H860.661C862.823 183.418 866.567 188.908 871.89 193.566C877.38 198.057 884.284 200.303 892.602 200.303C898.591 200.303 904.413 199.139 910.069 196.81C915.892 194.481 920.3 191.403 923.295 187.577L953.489 206.043C950.162 210.368 946.252 214.277 941.761 217.771C937.269 221.098 932.361 224.009 927.038 226.505C921.714 228.834 916.141 230.664 910.319 231.994C904.496 233.325 898.591 233.991 892.602 233.991C882.62 233.991 873.221 232.244 864.404 228.75C855.753 225.091 848.184 220.183 841.696 214.028C835.374 207.706 830.3 200.386 826.474 192.068C822.814 183.75 820.984 174.933 820.984 165.617C820.984 156.135 822.897 147.235 826.724 138.917C830.55 130.433 835.707 123.113 842.195 116.957C848.683 110.802 856.252 105.978 864.903 102.484C873.554 98.8244 882.787 96.9945 892.602 96.9945ZM892.602 130.932C885.116 130.932 878.711 132.928 873.387 136.921C868.23 140.913 864.321 145.738 861.659 151.394H923.544C921.049 145.738 917.14 140.913 911.816 136.921C906.493 132.928 900.088 130.932 892.602 130.932ZM510.612 398.898C516.767 400.396 523.089 402.142 529.577 404.139C536.065 406.135 541.887 408.797 547.044 412.124C552.368 415.451 556.693 419.61 560.02 424.601C563.514 429.425 565.261 435.497 565.261 442.817C565.261 450.636 563.347 457.207 559.521 462.531C555.695 467.688 550.871 471.93 545.048 475.257C539.225 478.418 532.738 480.664 525.584 481.994C518.597 483.325 511.776 483.991 505.122 483.991C492.146 483.991 480.584 481.079 470.436 475.257C460.455 469.268 451.97 460.867 444.983 450.054L477.423 432.835C480.75 438.492 485.076 442.817 490.399 445.811C495.889 448.64 501.296 450.054 506.619 450.054C514.272 450.054 519.762 449.471 523.089 448.307C526.582 447.142 528.329 445.562 528.329 443.566C528.329 441.902 527.164 440.488 524.835 439.323C522.673 437.993 520.094 436.828 517.1 435.83C514.272 434.832 511.444 434.083 508.616 433.584C505.787 432.919 503.791 432.503 502.627 432.336C496.638 431.172 490.566 429.675 484.41 427.845C478.255 425.848 472.682 423.27 467.691 420.109C462.701 416.782 458.542 412.789 455.214 408.131C452.054 403.307 450.473 397.401 450.473 390.414C450.473 383.261 451.97 377.022 454.965 371.699C458.126 366.209 462.201 361.634 467.192 357.974C472.183 354.314 477.839 351.569 484.161 349.739C490.649 347.909 497.22 346.994 503.874 346.994C516.018 346.994 527.165 349.823 537.312 355.479C547.627 361.135 556.277 368.871 563.264 378.686L533.07 397.651C529.41 391.828 525.002 387.586 519.845 384.924C514.854 382.262 509.946 380.932 505.122 380.932C499.632 380.932 495.307 381.68 492.146 383.177C488.985 384.675 487.405 386.588 487.405 388.917C487.405 389.915 488.153 390.913 489.651 391.911C491.148 392.743 492.978 393.658 495.14 394.656C497.469 395.488 499.965 396.32 502.627 397.152C505.455 397.817 508.116 398.399 510.612 398.898ZM682.959 479.25C679.299 480.58 674.391 481.662 668.236 482.494C662.247 483.492 653.763 483.991 642.783 483.991C637.293 483.991 632.136 482.909 627.312 480.747C622.654 478.75 618.578 476.006 615.084 472.512C611.591 468.852 608.763 464.693 606.6 460.035C604.604 455.211 603.606 450.054 603.606 444.564L603.356 384.425H577.404V351.985H603.356V311.56H640.787V351.985H671.729L664.493 384.425H640.787V436.828C640.953 440.488 642.284 443.649 644.779 446.311C647.441 448.806 650.685 450.054 654.511 450.054C660.999 450.054 665.657 449.388 668.485 448.057C671.48 446.56 673.643 445.479 674.973 444.813L682.959 479.25ZM820.62 479H783.439V466.024C778.448 471.514 772.958 475.839 766.969 479C760.98 482.327 754.326 483.991 747.006 483.991C739.686 483.991 732.866 482.577 726.544 479.749C720.222 476.921 714.733 473.094 710.074 468.27C705.416 463.279 701.673 457.54 698.845 451.052C696.184 444.564 694.853 437.577 694.853 430.091V351.985H732.283V422.854C732.283 426.68 732.949 430.257 734.28 433.584C735.611 436.745 737.44 439.573 739.769 442.068C742.098 444.564 744.76 446.56 747.755 448.057C750.915 449.388 754.243 450.054 757.736 450.054C761.23 450.054 764.474 449.388 767.468 448.057C770.629 446.56 773.374 444.564 775.703 442.068C778.198 439.573 780.111 436.662 781.442 433.335C782.773 429.841 783.439 426.181 783.439 422.355V351.985H820.62V479ZM984.451 304.323V479H947.02V469.018C941.531 473.51 935.625 477.087 929.303 479.749C922.982 482.577 916.327 483.991 909.34 483.991C899.858 483.991 890.958 482.244 882.64 478.75C874.322 475.091 867.085 470.183 860.93 464.028C854.775 457.706 849.867 450.386 846.207 442.068C842.714 433.75 840.967 424.933 840.967 415.617C840.967 406.135 842.714 397.235 846.207 388.917C849.867 380.433 854.775 373.113 860.93 366.957C867.251 360.802 874.571 355.978 882.889 352.484C891.207 348.824 900.024 346.994 909.34 346.994C916.327 346.994 922.982 348.409 929.303 351.237C935.791 353.898 941.697 357.392 947.02 361.717V304.323H984.451ZM913.333 450.303C918.157 450.303 922.649 449.388 926.808 447.558C931.133 445.728 934.793 443.316 937.787 440.322C940.948 437.161 943.444 433.501 945.274 429.342C947.104 425.017 948.019 420.442 948.019 415.617C948.019 410.793 947.104 406.301 945.274 402.142C943.444 397.817 940.948 394.157 937.787 391.163C934.793 388.002 931.133 385.506 926.808 383.677C922.649 381.847 918.157 380.932 913.333 380.932C908.508 380.932 903.934 381.847 899.608 383.677C895.449 385.506 891.789 388.002 888.629 391.163C885.634 394.157 883.222 397.817 881.392 402.142C879.562 406.301 878.647 410.793 878.647 415.617C878.647 420.442 879.562 425.017 881.392 429.342C883.222 433.501 885.634 437.161 888.629 440.322C891.789 443.316 895.449 445.728 899.608 447.558C903.934 449.388 908.508 450.303 913.333 450.303ZM1012.15 351.985H1049.58V479H1012.15V351.985ZM1030.87 294.342C1037.02 294.342 1042.26 296.505 1046.59 300.83C1050.92 305.155 1053.08 310.396 1053.08 316.551C1053.08 322.706 1050.92 327.946 1046.59 332.272C1042.26 336.597 1037.02 338.76 1030.87 338.76C1024.71 338.76 1019.47 336.597 1015.15 332.272C1010.82 327.946 1008.66 322.706 1008.66 316.551C1008.66 310.396 1010.82 305.155 1015.15 300.83C1019.47 296.505 1024.71 294.342 1030.87 294.342ZM1144.63 483.991C1134.31 483.991 1124.67 482.244 1115.68 478.75C1106.7 475.091 1098.88 470.183 1092.23 464.028C1085.57 457.706 1080.33 450.386 1076.51 442.068C1072.68 433.75 1070.77 424.933 1070.77 415.617C1070.77 406.135 1072.68 397.235 1076.51 388.917C1080.5 380.433 1085.82 373.113 1092.48 366.957C1099.3 360.802 1107.12 355.978 1115.93 352.484C1124.92 348.824 1134.48 346.994 1144.63 346.994C1154.78 346.994 1164.34 348.824 1173.33 352.484C1182.31 356.144 1190.13 361.135 1196.78 367.457C1203.44 373.612 1208.68 380.848 1212.5 389.166C1216.33 397.484 1218.24 406.301 1218.24 415.617C1218.24 425.1 1216.25 434 1212.25 442.318C1208.43 450.636 1203.19 457.872 1196.53 464.028C1189.88 470.183 1182.06 475.091 1173.08 478.75C1164.09 482.244 1154.61 483.991 1144.63 483.991ZM1144.63 380.932C1139.14 380.932 1134.15 381.93 1129.66 383.926C1125.33 385.922 1121.59 388.584 1118.43 391.911C1115.43 395.238 1113.02 398.982 1111.19 403.14C1109.53 407.299 1108.7 411.458 1108.7 415.617C1108.7 419.943 1109.44 424.185 1110.94 428.344C1112.61 432.336 1114.93 435.996 1117.93 439.323C1121.09 442.651 1124.92 445.312 1129.41 447.309C1133.9 449.305 1138.97 450.303 1144.63 450.303C1150.29 450.303 1155.28 449.305 1159.6 447.309C1164.09 445.312 1167.84 442.651 1170.83 439.323C1173.99 435.996 1176.4 432.336 1178.07 428.344C1179.73 424.185 1180.56 419.943 1180.56 415.617C1180.56 411.458 1179.65 407.299 1177.82 403.14C1176.15 398.982 1173.74 395.238 1170.58 391.911C1167.59 388.584 1163.84 385.922 1159.35 383.926C1155.03 381.93 1150.12 380.932 1144.63 380.932ZM1296.02 398.898C1302.18 400.396 1308.5 402.142 1314.99 404.139C1321.48 406.135 1327.3 408.797 1332.45 412.124C1337.78 415.451 1342.1 419.61 1345.43 424.601C1348.92 429.425 1350.67 435.497 1350.67 442.817C1350.67 450.636 1348.76 457.207 1344.93 462.531C1341.11 467.688 1336.28 471.93 1330.46 475.257C1324.64 478.418 1318.15 480.664 1310.99 481.994C1304.01 483.325 1297.19 483.991 1290.53 483.991C1277.56 483.991 1265.99 481.079 1255.85 475.257C1245.87 469.268 1237.38 460.867 1230.39 450.054L1262.83 432.835C1266.16 438.492 1270.49 442.817 1275.81 445.811C1281.3 448.64 1286.71 450.054 1292.03 450.054C1299.68 450.054 1305.17 449.471 1308.5 448.307C1311.99 447.142 1313.74 445.562 1313.74 443.566C1313.74 441.902 1312.58 440.488 1310.25 439.323C1308.08 437.993 1305.5 436.828 1302.51 435.83C1299.68 434.832 1296.85 434.083 1294.03 433.584C1291.2 432.919 1289.2 432.503 1288.04 432.336C1282.05 431.172 1275.98 429.675 1269.82 427.845C1263.67 425.848 1258.09 423.27 1253.1 420.109C1248.11 416.782 1243.95 412.789 1240.63 408.131C1237.46 403.307 1235.88 397.401 1235.88 390.414C1235.88 383.261 1237.38 377.022 1240.38 371.699C1243.54 366.209 1247.61 361.634 1252.6 357.974C1257.59 354.314 1263.25 351.569 1269.57 349.739C1276.06 347.909 1282.63 346.994 1289.28 346.994C1301.43 346.994 1312.58 349.823 1322.72 355.479C1333.04 361.135 1341.69 368.871 1348.67 378.686L1318.48 397.651C1314.82 391.828 1310.41 387.586 1305.26 384.924C1300.26 382.262 1295.36 380.932 1290.53 380.932C1285.04 380.932 1280.72 381.68 1277.56 383.177C1274.4 384.675 1272.82 386.588 1272.82 388.917C1272.82 389.915 1273.56 390.913 1275.06 391.911C1276.56 392.743 1278.39 393.658 1280.55 394.656C1282.88 395.488 1285.38 396.32 1288.04 397.152C1290.87 397.817 1293.53 398.399 1296.02 398.898Z" fill="#currentColor"/>
<path fill-rule="evenodd" clip-rule="evenodd" d="M193.592 325.84C268.321 318.19 326.618 255.057 326.618 178.309C326.618 96.4001 260.218 30 178.309 30C96.4001 30 30 96.4001 30 178.309C30 255.057 88.2971 318.19 163.025 325.84V355.972C71.7025 348.219 0 271.638 0 178.309C0 79.8316 79.8316 0 178.309 0C276.786 0 356.618 79.8316 356.618 178.309C356.618 271.638 284.915 348.219 193.592 355.972V325.84Z" fill="#currentColor"/>
<rect x="116.155" y="454.433" width="122.269" height="30.5672" rx="15.2836" fill="#currentColor"/>
<rect x="163.025" y="285.294" width="30.5672" height="169.139" fill="#currentColor"/>
<rect x="112.08" y="241.698" width="30.5672" height="91.7017" rx="15.2836" transform="rotate(-45 112.08 241.698)" fill="#currentColor"/>
<path d="M208.91 230.891C214.878 224.923 224.555 224.923 230.524 230.891V230.891C236.493 236.86 236.493 246.537 230.524 252.505L187.295 295.734C181.327 301.703 171.65 301.703 165.681 295.734V295.734C159.712 289.765 159.712 280.088 165.681 274.12L208.91 230.891Z" fill="currentColor"/>
</svg>
