<svg width="1779" height="450" viewBox="0 0 1779 450" fill="none" xmlns="http://www.w3.org/2000/svg">
<path d="M20.8975 54.3301L100 8.66025L179.103 54.3301V145.67L100 191.34L20.8975 145.67V54.3301Z" stroke="black" stroke-width="15"/>
<path d="M470.897 54.3301L550 8.66025L629.103 54.3301V145.67L550 191.34L470.897 145.67V54.3301Z" stroke="black" stroke-width="15"/>
<path d="M249.897 304.33L329 258.66L408.103 304.33V395.67L329 441.34L249.897 395.67V304.33Z" stroke="black" stroke-width="15"/>
<path d="M699.897 304.33L779 258.66L858.103 304.33V395.67L779 441.34L699.897 395.67V304.33Z" stroke="black" stroke-width="15"/>
<path d="M920.897 54.3301L1000 8.66025L1079.1 54.3301V145.67L1000 191.34L920.897 145.67V54.3301Z" stroke="black" stroke-width="15"/>
<path d="M1370.9 54.3301L1450 8.66025L1529.1 54.3301V145.67L1450 191.34L1370.9 145.67V54.3301Z" stroke="black" stroke-width="15"/>
<path d="M1149.9 304.33L1229 258.66L1308.1 304.33V395.67L1229 441.34L1149.9 395.67V304.33Z" stroke="black" stroke-width="15"/>
<path d="M1599.9 304.33L1679 258.66L1758.1 304.33V395.67L1679 441.34L1599.9 395.67V304.33Z" stroke="black" stroke-width="15"/>
</svg>
